<?xml version="1.0" encoding="UTF-8"?>
<svg version="1.1" xmlns="http://www.w3.org/2000/svg" width="512" height="512">
<path d="M0 0 C168.96 0 337.92 0 512 0 C512 168.96 512 337.92 512 512 C343.04 512 174.08 512 0 512 C0 343.04 0 174.08 0 0 Z " fill="#0E1729" transform="translate(0,0)"/>
<path d="M0 0 C168.96 0 337.92 0 512 0 C512 42.24 512 84.48 512 128 C343.04 128 174.08 128 0 128 C0 85.76 0 43.52 0 0 Z " fill="#151E43" transform="translate(0,384)"/>
<path d="M0 0 C168.96 0 337.92 0 512 0 C512 15.84 512 31.68 512 48 C343.04 48 174.08 48 0 48 C0 32.16 0 16.32 0 0 Z " fill="#3A3A3E" transform="translate(0,0)"/>
<path d="M0 0 C1.10954041 -0.01168213 2.21908081 -0.02336426 3.36224365 -0.03540039 C7.03023922 -0.06899494 10.69783092 -0.07972439 14.3659668 -0.08740234 C16.91798547 -0.09958244 19.47000269 -0.11206843 22.02201843 -0.12484741 C27.37262903 -0.14732744 32.72308863 -0.15695376 38.07373047 -0.15917969 C44.24469553 -0.16221246 50.41465736 -0.20263793 56.58533126 -0.26032794 C62.53604576 -0.3139883 68.48645938 -0.3287611 74.43742943 -0.32929611 C76.9623842 -0.33467738 79.48734194 -0.35152916 82.01214027 -0.38014603 C85.54802723 -0.4168802 89.08121625 -0.40915199 92.6171875 -0.390625 C94.17526375 -0.42130569 94.17526375 -0.42130569 95.76481628 -0.4526062 C102.34067329 -0.35811707 105.7358636 1.006441 110.44085979 5.6417942 C125.46079623 23.04711071 124.35651947 53.11751891 123.00268555 74.45166016 C122.19363008 82.13208983 121.0452411 89.6071876 118.62768555 96.95166016 C118.43174805 97.60134766 118.23581055 98.25103516 118.03393555 98.92041016 C116.61812699 103.36497373 114.83465652 106.79604823 112.00268555 110.45166016 C111.34268555 110.45166016 110.68268555 110.45166016 110.00268555 110.45166016 C109.63143555 111.41072266 109.63143555 111.41072266 109.25268555 112.38916016 C108.00268555 114.45166016 108.00268555 114.45166016 105.87768555 115.20166016 C105.25893555 115.28416016 104.64018555 115.36666016 104.00268555 115.45166016 C104.00268555 116.11166016 104.00268555 116.77166016 104.00268555 117.45166016 C65.72268555 117.45166016 27.44268555 117.45166016 -11.99731445 117.45166016 C-11.99731445 116.79166016 -11.99731445 116.13166016 -11.99731445 115.45166016 C-12.61606445 115.36916016 -13.23481445 115.28666016 -13.87231445 115.20166016 C-15.99731445 114.45166016 -15.99731445 114.45166016 -17.24731445 112.38916016 C-17.49481445 111.74978516 -17.74231445 111.11041016 -17.99731445 110.45166016 C-18.65731445 110.45166016 -19.31731445 110.45166016 -19.99731445 110.45166016 C-20.49231445 107.97666016 -20.49231445 107.97666016 -20.99731445 105.45166016 C-21.65731445 105.45166016 -22.31731445 105.45166016 -22.99731445 105.45166016 C-34.68211757 78.9122403 -34.72275355 44.59495418 -24.70825195 17.51416016 C-19.56694407 4.67574972 -13.60021096 0.00275296 0 0 Z " fill="#192E54" transform="translate(340.997314453125,157.54833984375)"/>
<path d="M0 0 C6.93 0 13.86 0 21 0 C21 0.66 21 1.32 21 2 C21.99 2.33 22.98 2.66 24 3 C25.1328125 4.671875 25.1328125 4.671875 26.125 6.75 C26.45757812 7.42546875 26.79015625 8.1009375 27.1328125 8.796875 C29.53572492 14.90157142 29.2537017 21.29002674 29.3125 27.75 C29.34150391 28.79671875 29.37050781 29.8434375 29.40039062 30.921875 C29.45102117 37.15332609 28.85073949 41.55611602 25.66870117 46.97363281 C24.70388132 49.89732934 25.67746349 51.28191302 27 54 C30.37555134 61.89789956 31.60695001 68.54317702 31.4375 77.125 C31.44458984 78.14464844 31.45167969 79.16429687 31.45898438 80.21484375 C31.38337398 89.2764583 29.66242802 96.7450141 24 104 C17.32052512 108.45298325 8.02772972 106 0 106 C0 71.02 0 36.04 0 0 Z " fill="#5D9BF1" transform="translate(70,165)"/>
<path d="M0 0 C168.96 0 337.92 0 512 0 C512 1.65 512 3.3 512 5 C343.04 5 174.08 5 0 5 C0 3.35 0 1.7 0 0 Z " fill="#172A4F" transform="translate(0,384)"/>
<path d="M0 0 C0.8146875 0.00257813 1.629375 0.00515625 2.46875 0.0078125 C3.2834375 0.00523437 4.098125 0.00265625 4.9375 0 C6.96875 0.1328125 6.96875 0.1328125 7.96875 1.1328125 C8.30422507 3.0615105 8.58203373 5.00028483 8.8359375 6.94140625 C8.99787598 8.15425293 9.15981445 9.36709961 9.32666016 10.61669922 C9.4972998 11.9213916 9.66793945 13.22608398 9.84375 14.5703125 C10.95155285 22.90988071 12.09551407 31.22798488 13.59375 39.5078125 C14.90095213 46.88618522 15.54999398 54.25625551 16.125 61.72363281 C16.92310069 71.59849339 18.26699371 81.38787925 19.64819336 91.19433594 C19.81843018 92.41411133 19.98866699 93.63388672 20.1640625 94.890625 C20.31891113 95.9748877 20.47375977 97.05915039 20.63330078 98.17626953 C20.93808558 100.86254603 21.03310665 103.43295729 20.96875 106.1328125 C17.99875 106.1328125 15.02875 106.1328125 11.96875 106.1328125 C10.97875 97.8828125 9.98875 89.6328125 8.96875 81.1328125 C4.67875 81.1328125 0.38875 81.1328125 -4.03125 81.1328125 C-4.16402344 82.61394531 -4.29679688 84.09507812 -4.43359375 85.62109375 C-4.61179204 87.56251719 -4.79018771 89.50392251 -4.96875 91.4453125 C-5.05576172 92.42177734 -5.14277344 93.39824219 -5.23242188 94.40429688 C-5.31943359 95.34208984 -5.40644531 96.27988281 -5.49609375 97.24609375 C-5.574646 98.11016846 -5.65319824 98.97424316 -5.73413086 99.86450195 C-6.03125 102.1328125 -6.03125 102.1328125 -7.03125 105.1328125 C-10.00125 105.1328125 -12.97125 105.1328125 -16.03125 105.1328125 C-16.16908105 99.86887636 -15.64436597 94.91861592 -14.78515625 89.72265625 C-13.36778131 80.71514241 -12.17816526 71.68525057 -11.05859375 62.63671875 C-10.97377369 61.95300579 -10.88895363 61.26929283 -10.80156326 60.5648613 C-10.2761088 56.32667468 -9.75400326 52.08808151 -9.2333374 47.8493042 C-8.53222128 42.14155584 -7.82878953 36.43409933 -7.12164497 30.72709465 C-6.87964467 28.76842701 -6.64008728 26.80945801 -6.40061951 24.85047913 C-3.35499951 0.21936535 -3.35499951 0.21936535 0 0 Z " fill="#5F6BE9" transform="translate(258.03125,164.8671875)"/>
<path d="M0 0 C2.27651061 0.04231432 3.92698309 0.23813381 6.0390625 1.1015625 C10.84463905 6.89362104 12.29494425 15.49141987 12.26611328 22.77124023 C12.26596222 24.05203964 12.26581116 25.33283905 12.26565552 26.65245056 C12.25544539 28.03002075 12.24501346 29.40758931 12.234375 30.78515625 C12.23063971 32.21004538 12.22779517 33.63493709 12.22579956 35.05982971 C12.21820371 38.79002105 12.19859059 42.5200539 12.1763916 46.25018311 C12.15584541 50.0645534 12.14677917 53.87894957 12.13671875 57.69335938 C12.11534038 65.16283226 12.08125405 72.63217508 12.0390625 80.1015625 C9.3990625 80.1015625 6.7590625 80.1015625 4.0390625 80.1015625 C3.7090625 77.7915625 3.3790625 75.4815625 3.0390625 73.1015625 C2.0490625 75.7415625 1.0590625 78.3815625 0.0390625 81.1015625 C-1.41729121 81.32331183 -2.87616706 81.52854948 -4.3359375 81.7265625 C-5.14804688 81.84257812 -5.96015625 81.95859375 -6.796875 82.078125 C-7.86808594 82.08972656 -7.86808594 82.08972656 -8.9609375 82.1015625 C-14.6510884 76.4114116 -15.37147487 64.57568443 -15.3984375 56.7890625 C-15.27015105 49.11125671 -14.29737933 42.50002335 -9.8984375 36.1015625 C-5.8251756 33.32827781 -1.78954621 32.72975043 3.0390625 32.1015625 C2.92476853 30.33000596 2.79723213 28.55930021 2.6640625 26.7890625 C2.59445313 25.80292969 2.52484375 24.81679687 2.453125 23.80078125 C2.20040778 20.88627817 2.20040778 20.88627817 0.0390625 18.1015625 C-0.9509375 18.4315625 -1.9409375 18.7615625 -2.9609375 19.1015625 C-4.67661411 22.60451121 -4.67661411 22.60451121 -5.9609375 26.1015625 C-8.2709375 26.1015625 -10.5809375 26.1015625 -12.9609375 26.1015625 C-13.35505289 19.10966353 -12.64103583 13.57332067 -9.9609375 7.1015625 C-9.2803125 5.3690625 -9.2803125 5.3690625 -8.5859375 3.6015625 C-6.9609375 1.1015625 -6.9609375 1.1015625 -4.7734375 0.1640625 C-3.1817451 0.12869156 -1.58995426 0.08234823 0 0 Z " fill="#5D8FED" transform="translate(118.9609375,189.8984375)"/>
<path d="M0 0 C10.05444126 -0.78008596 10.05444126 -0.78008596 13.5 2.0625 C16.53931725 8.01449627 18.3789275 12.18245169 18.34057617 18.94506836 C18.34123329 19.92683548 18.34123329 19.92683548 18.34190369 20.92843628 C18.33983374 23.06588853 18.31659013 25.20253061 18.29296875 27.33984375 C18.28736636 28.83199129 18.2830993 30.32414439 18.28010559 31.81629944 C18.26870733 35.72412628 18.23928423 39.63161317 18.20599365 43.53930664 C18.17518381 47.5346212 18.16157704 51.52999124 18.14648438 55.52539062 C18.11440898 63.3504146 18.06327442 71.17515948 18 79 C15.36 79 12.72 79 10 79 C9.67 77.02 9.34 75.04 9 73 C8.484375 73.99 7.96875 74.98 7.4375 76 C5 79 5 79 1.5 79.625 C-2 79 -2 79 -4.3125 77.625 C-8.4884014 71.12915338 -8.18554587 63.36549052 -8.25 55.875 C-8.2593457 55.12331543 -8.26869141 54.37163086 -8.27832031 53.59716797 C-8.23825818 46.56010097 -7.27699238 39.81670963 -3 34 C-0.14521674 32.09681116 1.41941308 31.5380901 4.6875 30.875 C5.49574219 30.70742187 6.30398437 30.53984375 7.13671875 30.3671875 C7.75160156 30.24601562 8.36648437 30.12484375 9 30 C9.08948558 25.52572076 8.85743651 21.39436211 8 17 C6.02 17 4.04 17 2 17 C1.67 19.64 1.34 22.28 1 25 C-1.64 25 -4.28 25 -7 25 C-7.39700044 12.80326423 -7.39700044 12.80326423 -5 7 C-4.01 6.67 -3.02 6.34 -2 6 C-2 5.01 -2 4.02 -2 3 C-1.34 3 -0.68 3 0 3 C0 2.01 0 1.02 0 0 Z " fill="#5F75EB" transform="translate(220,192)"/>
<path d="M0 0 C2.97 0 5.94 0 9 0 C9.33 1.65 9.66 3.3 10 5 C10.185625 4.360625 10.37125 3.72125 10.5625 3.0625 C12 1 12 1 15.4375 0.1875 C19 0 19 0 22 1 C28.7756069 10.23507987 28.28273944 22.45659789 28.1953125 33.3203125 C28.19157317 34.67365304 28.18873056 36.02699633 28.18673706 37.38034058 C28.17917285 40.90828182 28.15958825 44.43605319 28.1373291 47.96392822 C28.11671341 51.57749129 28.10770204 55.19108233 28.09765625 58.8046875 C28.076334 65.86986033 28.0422875 72.93491896 28 80 C25.03 80 22.06 80 19 80 C18.98969254 79.29700272 18.97938507 78.59400543 18.96876526 77.8697052 C18.8706568 71.23420353 18.7681238 64.59878657 18.66066074 57.96342945 C18.60557225 54.55239282 18.55217546 51.14134743 18.50268555 47.73022461 C18.4456726 43.80574027 18.38122828 39.88139468 18.31640625 35.95703125 C18.29969376 34.73603226 18.28298126 33.51503326 18.26576233 32.2570343 C18.24581711 31.1162291 18.22587189 29.97542389 18.20532227 28.80004883 C18.18200584 27.2978051 18.18200584 27.2978051 18.15821838 25.76521301 C18.00498225 23.08707578 17.5953488 20.61215418 17 18 C15.35 18 13.7 18 12 18 C9.64741821 24.53357363 9.65419091 30.81973244 9.5859375 37.71484375 C9.56657135 38.92572159 9.5472052 40.13659943 9.5272522 41.38417053 C9.46767962 45.23520967 9.42115984 49.08627905 9.375 52.9375 C9.33679973 55.55535127 9.29774682 58.17319024 9.2578125 60.79101562 C9.16199634 67.19390094 9.07688382 73.59686086 9 80 C6.03 80 3.06 80 0 80 C0 53.6 0 27.2 0 0 Z " fill="#5B85E7" transform="translate(136,191)"/>
<path d="M0 0 C2.97 0 5.94 0 9 0 C11.25876898 17.30289467 12.86262211 34.58811264 14 52 C15.16937465 49.6612507 15.30442778 47.8948083 15.55664062 45.29077148 C15.65344116 44.31313339 15.7502417 43.3354953 15.84997559 42.32823181 C15.95104614 41.26987625 16.0521167 40.21152069 16.15625 39.12109375 C16.37630149 36.89908848 16.59635359 34.67708328 16.81640625 32.45507812 C17.15985757 28.93704273 17.50180861 25.41886463 17.84326172 21.90063477 C18.17314549 18.51542148 18.50826082 15.13075535 18.84375 11.74609375 C18.94482056 10.68571396 19.04589111 9.62533417 19.15002441 8.53282166 C19.24682495 7.55833572 19.34362549 6.58384979 19.44335938 5.57983398 C19.52694702 4.71760727 19.61053467 3.85538055 19.69665527 2.96702576 C20 1 20 1 21 0 C23.67058851 -0.14115161 26.32432238 -0.04247107 29 0 C28.58752411 8.33485767 27.69654745 16.49740506 26.5 24.75 C25.53571863 31.42971645 24.8007292 38.00562233 24.5625 44.75 C23.88331315 62.27020755 22.51364189 86.71521506 13 102 C10 104 10 104 2 104 C2 98.06 2 92.12 2 86 C4.475 85.505 4.475 85.505 7 85 C11.39745643 76.20508714 7.01104595 60.882672 5.6875 51.375 C5.45746975 49.67138886 5.22806235 47.96769352 4.99926758 46.26391602 C3.75554006 37.07576101 2.37857332 27.92180841 0.81982422 18.78149414 C-0.1994737 12.48569651 -0.30863925 6.3671134 0 0 Z " fill="#5E7CEB" transform="translate(181,192)"/>
<path d="M0 0 C2.64 0 5.28 0 8 0 C8 34.98 8 69.96 8 106 C5.36 106 2.72 106 0 106 C-1.53425806 104.46574194 -1.12592923 103.0768638 -1.12698364 100.93823242 C-1.12980347 100.0632309 -1.13262329 99.18822937 -1.13552856 98.28671265 C-1.13350433 97.31940216 -1.1314801 96.35209167 -1.12939453 95.35546875 C-1.13114685 94.34255768 -1.13289917 93.32964661 -1.13470459 92.28604126 C-1.13912522 88.91984369 -1.13618437 85.55369816 -1.1328125 82.1875 C-1.13348548 79.85961904 -1.13445545 77.53173814 -1.13571167 75.20385742 C-1.13718893 70.31786431 -1.13503318 65.43188944 -1.13037109 60.54589844 C-1.1246738 54.26727344 -1.12795265 47.98869118 -1.13394356 41.71006775 C-1.13754841 36.90099767 -1.13641093 32.09193781 -1.13381577 27.28286743 C-1.13314629 24.96709183 -1.13397564 22.65131531 -1.13629532 20.33554077 C-1.13882061 17.10517909 -1.13498299 13.87488767 -1.12939453 10.64453125 C-1.13141876 9.67722076 -1.13344299 8.70991028 -1.13552856 7.71328735 C-1.13270874 6.83828583 -1.12988892 5.9632843 -1.12698364 5.06176758 C-1.12660662 4.29705643 -1.12622959 3.53234528 -1.12584114 2.74446106 C-1 1 -1 1 0 0 Z " fill="#5D62E3" transform="translate(284,165)"/>
<path d="M0 0 C2.64 0 5.28 0 8 0 C9.68232339 1.68232339 9.12575392 3.75423024 9.13552856 5.99983215 C9.13350433 6.7146727 9.1314801 7.42951324 9.12939453 8.16601562 C9.13114685 8.91558029 9.13289917 9.66514496 9.13470459 10.43742371 C9.1391232 12.92705569 9.1361851 15.41661723 9.1328125 17.90625 C9.13348554 19.62878432 9.13445556 21.35131855 9.13571167 23.07385254 C9.13718865 26.68872988 9.13503407 30.30358255 9.13037109 33.91845703 C9.1246738 38.56266493 9.1279528 43.20681504 9.13394356 47.85102081 C9.13754916 51.40936726 9.13641059 54.9676999 9.13381577 58.52604675 C9.13314649 60.23894762 9.13397493 61.95184972 9.13629532 63.66474915 C9.13882183 66.05452822 9.1349813 68.44421241 9.12939453 70.83398438 C9.13141876 71.54882492 9.13344299 72.26366547 9.13552856 73.00016785 C9.11426269 77.88573731 9.11426269 77.88573731 8 79 C5.36 79 2.72 79 0 79 C0 52.93 0 26.86 0 0 Z " fill="#5B7DE3" transform="translate(169,192)"/>
<path d="M0 0 C2.64 0 5.28 0 8 0 C8.33 1.65 8.66 3.3 9 5 C9.66 3.35 10.32 1.7 11 0 C12.98 0 14.96 0 17 0 C19.1103435 4.27884606 19.24128739 8.13864142 19.125 12.8125 C19.11597656 13.50537109 19.10695313 14.19824219 19.09765625 14.91210938 C19.07426157 16.60822395 19.03839641 18.30415871 19 20 C16.69 20 14.38 20 12 20 C12.33 22.31 12.66 24.62 13 27 C13.928125 26.01 13.928125 26.01 14.875 25 C17 23 17 23 19 23 C19 25.31 19 27.62 19 30 C18.34 30 17.68 30 17 30 C17 30.99 17 31.98 17 33 C15.1875 33.6875 15.1875 33.6875 13 34 C9.68769602 31.83426278 8.99803728 28.68343422 8 25 C7.77515876 22.2011735 7.80904993 19.43041449 7.875 16.625 C7.88402344 15.88894531 7.89304687 15.15289062 7.90234375 14.39453125 C7.92569856 12.5962112 7.96156164 10.79806089 8 9 C6.68 9.33 5.36 9.66 4 10 C3.67 17.59 3.34 25.18 3 33 C2.01 33 1.02 33 0 33 C0 22.11 0 11.22 0 0 Z " fill="#668EBF" transform="translate(415,206)"/>
<path d="M0 0 C0.99 0 1.98 0 3 0 C3 14.52 3 29.04 3 44 C-5 46 -5 46 -7 45 C-9.31813254 38.99579098 -9.33363414 33.19078195 -9.3125 26.8125 C-9.32861328 25.82830078 -9.34472656 24.84410156 -9.36132812 23.83007812 C-9.36197266 22.88197266 -9.36261719 21.93386719 -9.36328125 20.95703125 C-9.36626221 20.10085205 -9.36924316 19.24467285 -9.37231445 18.36254883 C-8.90681955 15.40871656 -8.17442663 14.05341093 -6 12 C-4.35 12 -2.7 12 -1 12 C-0.67 8.04 -0.34 4.08 0 0 Z " fill="#5173A1" transform="translate(445,195)"/>
<path d="M0 0 C2.64 0 5.28 0 8 0 C8 0.66 8 1.32 8 2 C8.99 2 9.98 2 11 2 C13.06054573 6.25191977 13.26878779 9.80305214 13.25 14.5 C13.25515625 15.7890625 13.2603125 17.078125 13.265625 18.40625 C13.01830367 21.7523621 12.4505069 24.00689053 11 27 C10.34 27 9.68 27 9 27 C9 27.66 9 28.32 9 29 C5.7 29 2.4 29 -1 29 C-1.02891546 24.54168018 -1.04676981 20.08338431 -1.0625 15.625 C-1.07087891 14.35398438 -1.07925781 13.08296875 -1.08789062 11.7734375 C-1.09111328 10.56171875 -1.09433594 9.35 -1.09765625 8.1015625 C-1.10289307 6.98088379 -1.10812988 5.86020508 -1.11352539 4.70556641 C-1 2 -1 2 0 0 Z " fill="#0F182B" transform="translate(79,224)"/>
<path d="M0 0 C2.69082872 0.17635452 5.32851446 0.61835921 8 1 C10.25947743 5.52792104 10.30151398 9.49645093 10.25 14.4375 C10.25773437 15.17548828 10.26546875 15.91347656 10.2734375 16.67382812 C10.25746713 21.16549563 9.68914015 24.7704467 8 29 C6.02 29.33 4.04 29.66 2 30 C2 34.62 2 39.24 2 44 C1.01 44 0.02 44 -1 44 C-1.02464513 37.8944529 -1.04283371 31.78893449 -1.05493164 25.68334961 C-1.05997288 23.60456844 -1.06680574 21.52579084 -1.07543945 19.44702148 C-1.08751422 16.46597414 -1.09323024 13.48497351 -1.09765625 10.50390625 C-1.10539818 9.10078941 -1.10539818 9.10078941 -1.11329651 7.66932678 C-1.11337204 6.80850998 -1.11344757 5.94769318 -1.11352539 5.06079102 C-1.115746 4.29912125 -1.11796661 3.53745148 -1.12025452 2.75270081 C-1 1 -1 1 0 0 Z " fill="#86B5EB" transform="translate(360,195)"/>
<path d="M0 0 C0.99 0 1.98 0 3 0 C3.85835162 5.48036204 4.71274161 10.96132152 5.56347656 16.44287109 C5.85340489 18.30729831 6.14441243 20.17155804 6.43652344 22.03564453 C6.85636119 24.71603723 7.27230607 27.39700955 7.6875 30.078125 C7.81874268 30.91055725 7.94998535 31.7429895 8.08520508 32.60064697 C8.20532959 33.38115417 8.3254541 34.16166138 8.44921875 34.96582031 C8.55580811 35.64976868 8.66239746 36.33371704 8.7722168 37.03839111 C9 39 9 39 9 43 C7.68 42.67 6.36 42.34 5 42 C4.67 39.36 4.34 36.72 4 34 C2.35 34 0.7 34 -1 34 C-1.33 36.97 -1.66 39.94 -2 43 C-3.32 43 -4.64 43 -6 43 C-4.3669345 28.594717 -2.56977027 14.27042641 0 0 Z " fill="#8BBCF3" transform="translate(331,196)"/>
<path d="M0 0 C1.98 0 3.96 0 6 0 C7.81624266 3.11755256 8.25623003 5.39995478 8.265625 8.9921875 C8.26820313 9.94480469 8.27078125 10.89742187 8.2734375 11.87890625 C8.26570313 12.86761719 8.25796875 13.85632813 8.25 14.875 C8.25773437 15.85597656 8.26546875 16.83695313 8.2734375 17.84765625 C8.25964664 22.95716998 8.04100756 27.22145056 6 32 C4.02 32 2.04 32 0 32 C-4.03648506 23.92702988 -4.43625712 13.9431329 -2.3203125 5.1875 C-1.5 3 -1.5 3 0 0 Z " fill="#84B2E8" transform="translate(375,207)"/>
<path d="M0 0 C0.99 0 1.98 0 3 0 C3.66 4.62 4.32 9.24 5 14 C5.66 9.71 6.32 5.42 7 1 C7.66 1 8.32 1 9 1 C9.27256607 11.53922138 8.53370124 21.57904782 7 32 C5.68 32 4.36 32 3 32 C2.93941406 31.24074219 2.87882812 30.48148438 2.81640625 29.69921875 C2.73261719 28.70535156 2.64882813 27.71148437 2.5625 26.6875 C2.48128906 25.70136719 2.40007812 24.71523437 2.31640625 23.69921875 C2.08187441 20.90624401 2.08187441 20.90624401 1 18 C0.97421875 18.91523438 0.9484375 19.83046875 0.921875 20.7734375 C0.86515625 21.96195313 0.8084375 23.15046875 0.75 24.375 C0.70359375 25.55835938 0.6571875 26.74171875 0.609375 27.9609375 C0.40828125 28.96382812 0.2071875 29.96671875 0 31 C-2.03808594 32.18994141 -2.03808594 32.18994141 -4 33 C-4.34113382 29.54239094 -4.67143391 26.08382414 -5 22.625 C-5.09539062 21.65949219 -5.19078125 20.69398438 -5.2890625 19.69921875 C-5.87676281 13.44440832 -6.12414553 7.281419 -6 1 C-5.34 1 -4.68 1 -4 1 C-3.34 4.63 -2.68 8.26 -2 12 C-1.34 8.04 -0.68 4.08 0 0 Z " fill="#7CA9DE" transform="translate(391,207)"/>
<path d="M0 0 C2.31 0 4.62 0 7 0 C9.30844801 6.34823202 9.19818283 12.29481414 9 19 C6.36 19 3.72 19 1 19 C1.66 21.31 2.32 23.62 3 26 C3.66 26 4.32 26 5 26 C5.33 25.01 5.66 24.02 6 23 C6.99 23 7.98 23 9 23 C8.39622642 30.36603774 8.39622642 30.36603774 6.75 33 C4.41516867 34.33418933 2.64213132 34.21422686 0 34 C-1.89460759 28.39887836 -2.30615573 23.45417243 -2.25 17.5625 C-2.25773437 16.75490234 -2.26546875 15.94730469 -2.2734375 15.11523438 C-2.25617063 9.75818783 -1.4890205 5.14657481 0 0 Z " fill="#87B7EE" transform="translate(404,206)"/>
<path d="M0 0 C7 0 7 0 10 1 C11.21347754 4.64043263 11.2224972 8.02055186 11.25 11.8125 C11.270625 12.51181641 11.29125 13.21113281 11.3125 13.93164062 C11.34835728 18.72306977 10.44672136 21.89852236 8 26 C5.36 26 2.72 26 0 26 C0 17.42 0 8.84 0 0 Z " fill="#0F182B" transform="translate(79,183)"/>
<path d="M0 0 C0.66 0 1.32 0 2 0 C2 14.19 2 28.38 2 43 C-0.64 43 -3.28 43 -6 43 C-6.33 41.02 -6.66 39.04 -7 37 C-6.34 37 -5.68 37 -5 37 C-5 37.66 -5 38.32 -5 39 C-4.01 39 -3.02 39 -2 39 C-0.74304094 31.77248543 -0.08845642 24.16828842 -2 17 C-4.35001566 17.88592015 -4.35001566 17.88592015 -5.0625 21 C-6.19129923 25.27521598 -6.62119911 29.60391604 -7 34 C-7.33 34 -7.66 34 -8 34 C-8.05434116 31.4580411 -8.0938339 28.91726318 -8.125 26.375 C-8.14175781 25.66214844 -8.15851563 24.94929688 -8.17578125 24.21484375 C-8.21684602 19.7387836 -7.69086567 16.22050722 -6 12 C-4.35 12 -2.7 12 -1 12 C-0.67 8.04 -0.34 4.08 0 0 Z " fill="#8EC0F7" transform="translate(445,195)"/>
<path d="M0 0 C2.375 0.1875 2.375 0.1875 5 1 C7.28653336 5.12975924 7.26833775 8.97638098 7.25 13.625 C7.25515625 14.93726563 7.2603125 16.24953125 7.265625 17.6015625 C7 21 7 21 5 24 C2.625 23.6875 2.625 23.6875 0 23 C-2.50874465 19.23688303 -2.26763214 17.11237925 -2.25 12.625 C-2.25515625 11.31789062 -2.2603125 10.01078125 -2.265625 8.6640625 C-2.02038462 5.28118782 -1.46995257 3.02156916 0 0 Z " fill="#5C80E8" transform="translate(171,159)"/>
<path d="M0 0 C0.66 0.33 1.32 0.66 2 1 C2.39477539 3.01855469 2.39477539 3.01855469 2.59765625 5.671875 C2.6764502 6.64116943 2.75524414 7.61046387 2.83642578 8.60913086 C2.91103027 9.64561768 2.98563477 10.68210449 3.0625 11.75 C3.14483887 12.7922876 3.22717773 13.8345752 3.31201172 14.90844727 C3.54977427 17.93838966 3.77569523 20.96903651 4 24 C4.11483401 25.47273861 4.23056442 26.94540793 4.34765625 28.41796875 C4.57304189 31.27814427 4.79129674 34.13856847 5 37 C2.03 37 -0.94 37 -4 37 C-3.21337126 28.95042051 -2.33679403 20.91270935 -1.4375 12.875 C-1.29892578 11.63234375 -1.16035156 10.3896875 -1.01757812 9.109375 C-0.67888991 6.07285998 -0.33968606 3.03640353 0 0 Z " fill="#151E3A" transform="translate(260,191)"/>
<path d="M0 0 C1.875 0.3125 1.875 0.3125 4 1 C6.20914 4.31371 6.22481553 5.3446021 6.125 9.1875 C6.10695313 10.08855469 6.08890625 10.98960937 6.0703125 11.91796875 C6.03550781 12.94857422 6.03550781 12.94857422 6 14 C6.66 14 7.32 14 8 14 C7.34 16.64 6.68 19.28 6 22 C4.02 22.33 2.04 22.66 0 23 C0 27.62 0 32.24 0 37 C-0.99 36.67 -1.98 36.34 -3 36 C-2.34 36 -1.68 36 -1 36 C-1.08378906 34.72382813 -1.16757812 33.44765625 -1.25390625 32.1328125 C-1.35706232 30.46355965 -1.45991099 28.79428779 -1.5625 27.125 C-1.61857422 26.28324219 -1.67464844 25.44148438 -1.73242188 24.57421875 C-1.78076172 23.76855469 -1.82910156 22.96289062 -1.87890625 22.1328125 C-1.9260376 21.38918457 -1.97316895 20.64555664 -2.02172852 19.87939453 C-2 18 -2 18 -1 16 C-0.7677354 13.28737884 -0.58063765 10.59226874 -0.4375 7.875 C-0.39431641 7.12089844 -0.35113281 6.36679688 -0.30664062 5.58984375 C-0.2005168 3.72678112 -0.09974999 1.86341476 0 0 Z " fill="#80AEE3" transform="translate(362,202)"/>
<path d="M0 0 C0.99 0 1.98 0 3 0 C3.53084792 2.91516484 4.04999055 5.83160557 4.5625 8.75 C4.71396484 9.575 4.86542969 10.4 5.02148438 11.25 C5.2293457 12.44882813 5.2293457 12.44882813 5.44140625 13.671875 C5.57232666 14.4050293 5.70324707 15.13818359 5.83813477 15.89355469 C6.01415384 18.18419207 5.66641182 19.81382676 5 22 C4.814375 22.7425 4.62875 23.485 4.4375 24.25 C4.293125 24.8275 4.14875 25.405 4 26 C1.625 26.125 1.625 26.125 -1 26 C-3 24 -3 24 -3.046875 21.6015625 C-2.32271937 14.34094948 -1.31097347 7.17853432 0 0 Z " fill="#85B4EA" transform="translate(331,196)"/>
<path d="M0 0 C0.39830105 6.37281679 -0.03263383 11.2699136 -3 17 C-5.6875 18 -5.6875 18 -8 18 C-10.71270377 13.93094435 -10.39288477 10.76477275 -10 6 C-9.3125 3 -9.3125 3 -8 1 C-5.19031313 0.06343771 -2.96200864 0 0 0 Z " fill="#17213E" transform="translate(230,237)"/>
<path d="M0 0 C0.02692484 2.29160319 0.04636124 4.58329546 0.0625 6.875 C0.07410156 8.15117187 0.08570312 9.42734375 0.09765625 10.7421875 C0 14 0 14 -1 16 C-4.0625 16.625 -4.0625 16.625 -7 17 C-9.59985055 12.49985708 -9.86063292 8.08555814 -9 3 C-5.84504252 0.02031794 -4.37295237 0 0 0 Z " fill="#17243F" transform="translate(122,238)"/>
<path d="M0 0 C0.99 0.33 1.98 0.66 3 1 C3 14.53 3 28.06 3 42 C2.01 42 1.02 42 0 42 C0 28.14 0 14.28 0 0 Z " fill="#7FADE2" transform="translate(342,197)"/>
<path d="M0 0 C2.31 0 4.62 0 7 0 C7 1.98 7 3.96 7 6 C6.01 6.33 5.02 6.66 4 7 C3.67 15.25 3.34 23.5 3 32 C2.01 32 1.02 32 0 32 C0 21.44 0 10.88 0 0 Z " fill="#82B1E7" transform="translate(415,207)"/>
<path d="M0 0 C2.64 0 5.28 0 8 0 C8 0.66 8 1.32 8 2 C8.99 2 9.98 2 11 2 C11.33 3.65 11.66 5.3 12 7 C11.34 6.67 10.68 6.34 10 6 C10 5.01 10 4.02 10 3 C7.03 3 4.06 3 1 3 C1 10.59 1 18.18 1 26 C3.97 26 6.94 26 10 26 C10.33 25.34 10.66 24.68 11 24 C11 24.99 11 25.98 11 27 C10.34 27 9.68 27 9 27 C9 27.66 9 28.32 9 29 C5.7 29 2.4 29 -1 29 C-1.02891546 24.54168018 -1.04676981 20.08338431 -1.0625 15.625 C-1.07087891 14.35398438 -1.07925781 13.08296875 -1.08789062 11.7734375 C-1.09111328 10.56171875 -1.09433594 9.35 -1.09765625 8.1015625 C-1.10289307 6.98088379 -1.10812988 5.86020508 -1.11352539 4.70556641 C-1 2 -1 2 0 0 Z " fill="#264066" transform="translate(79,224)"/>
<path d="M0 0 C0.66 0 1.32 0 2 0 C5.07598407 5.76747013 4.780283 12.8330997 3 19 C1.68 19 0.36 19 -1 19 C-2.4097034 16.1805932 -2.16984647 13.76732774 -2.1875 10.625 C-2.20167969 9.48289063 -2.21585937 8.34078125 -2.23046875 7.1640625 C-2.01170034 4.16063184 -1.57080637 2.52074066 0 0 Z " fill="#2A436C" transform="translate(441,212)"/>
<path d="M0 0 C0.99 0 1.98 0 3 0 C4.15410254 2.30820508 4.1210297 3.60784276 4.11352539 6.17431641 C4.11344986 7.03505768 4.11337433 7.89579895 4.11329651 8.78262329 C4.10813522 9.71287323 4.10297394 10.64312317 4.09765625 11.6015625 C4.0962413 12.55316254 4.09482635 13.50476257 4.09336853 14.48519897 C4.08776012 17.53183097 4.07520619 20.57839013 4.0625 23.625 C4.05748608 25.68749894 4.05292299 27.74999903 4.04882812 29.8125 C4.03778796 34.87502817 4.02051767 39.93750173 4 45 C3.67 45 3.34 45 3 45 C2.67 31.47 2.34 17.94 2 4 C1.34 3.67 0.68 3.34 0 3 C0 16.86 0 30.72 0 45 C-0.33 45 -0.66 45 -1 45 C-1.02467081 38.91276345 -1.04284604 32.82555583 -1.05493164 26.73828125 C-1.05996852 24.66633599 -1.06679825 22.5943943 -1.07543945 20.52246094 C-1.08753321 17.54881918 -1.09323467 14.57522431 -1.09765625 11.6015625 C-1.10281754 10.67131256 -1.10797882 9.74106262 -1.11329651 8.78262329 C-1.11337204 7.92188202 -1.11344757 7.06114075 -1.11352539 6.17431641 C-1.115746 5.41486725 -1.11796661 4.65541809 -1.12025452 3.87295532 C-1 2 -1 2 0 0 Z " fill="#314D76" transform="translate(342,194)"/>
<path d="M0 0 C1.65 0 3.3 0 5 0 C6.7328503 3.75728057 7.24534576 6.67453054 7.22705078 10.80004883 C7.22682419 12.51125664 7.22682419 12.51125664 7.22659302 14.2570343 C7.21627045 15.47803329 7.20594788 16.69903229 7.1953125 17.95703125 C7.1924826 19.21513107 7.18965271 20.4732309 7.18673706 21.76945496 C7.17745121 25.10187382 7.15950476 28.43401547 7.1373291 31.76635742 C7.11681017 35.17168797 7.10772246 38.57704723 7.09765625 41.98242188 C7.0756164 48.65502418 7.0421539 55.32749609 7 62 C6.67 62 6.34 62 6 62 C5.67 42.53 5.34 23.06 5 3 C0.01888125 5.31016339 0.01888125 5.31016339 -0.92578125 8.26171875 C-1.05339844 9.06222656 -1.18101562 9.86273438 -1.3125 10.6875 C-1.45300781 11.49574219 -1.59351563 12.30398437 -1.73828125 13.13671875 C-1.82464844 13.75160156 -1.91101563 14.36648437 -2 15 C-2.33 15 -2.66 15 -3 15 C-3.3152595 9.01006953 -2.68219822 5.36439644 0 0 Z " fill="#172441" transform="translate(148,209)"/>
<path d="M0 0 C0.66 0 1.32 0 2 0 C3.65497356 3.30994713 3.10084335 6.99123 3.0625 10.625 C3.05798828 11.42679688 3.05347656 12.22859375 3.04882812 13.0546875 C3.03703168 15.03649006 3.01909605 17.01825433 3 19 C1.68 19.33 0.36 19.66 -1 20 C-2.01259619 16.63007987 -2.16555609 13.51102519 -2.1875 10 C-2.20167969 8.96875 -2.21585937 7.9375 -2.23046875 6.875 C-2.00276947 4.03454797 -1.46504061 2.40892052 0 0 Z " fill="#243C64" transform="translate(377,212)"/>
<path d="M0 0 C0.33 0 0.66 0 1 0 C1 19.8 1 39.6 1 60 C-2.3 60 -5.6 60 -9 60 C-9 59.01 -9 58.02 -9 57 C-9.66 57 -10.32 57 -11 57 C-10.01 54.03 -10.01 54.03 -9 51 C-8.67 51 -8.34 51 -8 51 C-8 53.64 -8 56.28 -8 59 C-5.36 59 -2.72 59 0 59 C0 39.53 0 20.06 0 0 Z " fill="#23365D" transform="translate(131,211)"/>
<path d="M0 0 C0.66 0 1.32 0 2 0 C2.2615556 10.24426111 1.60781635 19.87937028 0 30 C-0.99 30 -1.98 30 -3 30 C-3 26.7 -3 23.4 -3 20 C-2.34 20 -1.68 20 -1 20 C-1.01160156 19.05898437 -1.02320313 18.11796875 -1.03515625 17.1484375 C-1.04417969 15.90320313 -1.05320312 14.65796875 -1.0625 13.375 C-1.07410156 12.14523438 -1.08570313 10.91546875 -1.09765625 9.6484375 C-1.00863924 6.32276209 -0.63686087 3.25952412 0 0 Z " fill="#7FADE2" transform="translate(398,208)"/>
<path d="M0 0 C2.31 0 4.62 0 7 0 C9.30844801 6.34823202 9.19818283 12.29481414 9 19 C6.36 19 3.72 19 1 19 C1 18.67 1 18.34 1 18 C3.31 18 5.62 18 8 18 C7.67 15.03 7.34 12.06 7 9 C6.67 10.65 6.34 12.3 6 14 C4.35 14 2.7 14 1 14 C1.33 11.03 1.66 8.06 2 5 C2.99 5 3.98 5 5 5 C5.33 3.68 5.66 2.36 6 1 C4.02 1.33 2.04 1.66 0 2 C0 1.34 0 0.68 0 0 Z " fill="#668EBF" transform="translate(404,206)"/>
<path d="M0 0 C4 1 4 1 5 2 C5.12514928 3.97619447 5.1757276 5.95738173 5.1875 7.9375 C5.20167969 9.01902344 5.21585937 10.10054687 5.23046875 11.21484375 C5 14 5 14 3 16 C2.01 16 1.02 16 0 16 C0 10.72 0 5.44 0 0 Z " fill="#253D66" transform="translate(362,202)"/>
<path d="M0 0 C0.33 0 0.66 0 1 0 C1 2.31 1 4.62 1 7 C3.43717258 6.72965366 3.43717258 6.72965366 6 6 C6.66 5.01 7.32 4.02 8 3 C8.33 5.64 8.66 8.28 9 11 C6.69 11.33 4.38 11.66 2 12 C1.67 14.31 1.34 16.62 1 19 C-1 17 -1 17 -1.23046875 13.59375 C-1.22647854 12.22909733 -1.21172843 10.8644434 -1.1875 9.5 C-1.18685547 8.81035156 -1.18621094 8.12070313 -1.18554688 7.41015625 C-1.14055525 2.28111049 -1.14055525 2.28111049 0 0 Z " fill="#8DBFF6" transform="translate(425,213)"/>
<path d="M0 0 C4.75 0.875 4.75 0.875 7 2 C6.75174074 5.29378088 6.47258139 8.58421793 6.1875 11.875 C6.11724609 12.81214844 6.04699219 13.74929687 5.97460938 14.71484375 C5.89404297 15.61074219 5.81347656 16.50664062 5.73046875 17.4296875 C5.66239014 18.25710449 5.59431152 19.08452148 5.52416992 19.93701172 C5 22 5 22 2 24 C2.33 16.74 2.66 9.48 3 2 C2.34 2 1.68 2 1 2 C1 3.98 1 5.96 1 8 C0.67 8 0.34 8 0 8 C0 5.36 0 2.72 0 0 Z " fill="#35517B" transform="translate(397,206)"/>
<path d="M0 0 C7 0 7 0 10 1 C10 1.66 10 2.32 10 3 C7.03 3 4.06 3 1 3 C1 9.6 1 16.2 1 23 C3.64 23 6.28 23 9 23 C8.67 23.99 8.34 24.98 8 26 C5.36 26 2.72 26 0 26 C0 17.42 0 8.84 0 0 Z " fill="#192945" transform="translate(79,183)"/>
<path d="M0 0 C0.33 0 0.66 0 1 0 C0.98839844 1.10859375 0.97679687 2.2171875 0.96484375 3.359375 C0.95546208 4.82291498 0.94636229 6.28645678 0.9375 7.75 C0.92912109 8.47960937 0.92074219 9.20921875 0.91210938 9.9609375 C0.8609584 14.05079472 0.8609584 14.05079472 1.56860352 18.05566406 C2 20 2 20 1 23 C-0.98 23 -2.96 23 -5 23 C-6.05404945 19.01803543 -5.84098656 16.01804691 -5 12 C-4.67 13.32 -4.34 14.64 -4 16 C-3.01 15.67 -2.02 15.34 -1 15 C-0.67 10.05 -0.34 5.1 0 0 Z " fill="#7AA6DB" transform="translate(380,216)"/>
<path d="M0 0 C2.64 0 5.28 0 8 0 C8 2.64 8 5.28 8 8 C5.36 8 2.72 8 0 8 C0 5.36 0 2.72 0 0 Z " fill="#709BCE" transform="translate(348,218)"/>
<path d="M0 0 C1.65 0 3.3 0 5 0 C5.33 1.65 5.66 3.3 6 5 C4.68 5.33 3.36 5.66 2 6 C0.29915181 11.32932432 -0.52013969 16.43109483 -1 22 C-1.33 22 -1.66 22 -2 22 C-2.05434116 19.4580411 -2.0938339 16.91726318 -2.125 14.375 C-2.14175781 13.66214844 -2.15851563 12.94929687 -2.17578125 12.21484375 C-2.21684602 7.7387836 -1.69086567 4.22050722 0 0 Z " fill="#89BAF1" transform="translate(439,207)"/>
<path d="M0 0 C1.17571451 3.67410785 1.07366746 7.16929183 1 11 C1.33 11 1.66 11 2 11 C2.33 14.63 2.66 18.26 3 22 C4.32 22.33 5.64 22.66 7 23 C6.67 23.66 6.34 24.32 6 25 C5.01 25 4.02 25 3 25 C3 24.34 3 23.68 3 23 C2.34 23 1.68 23 1 23 C0.67 23.99 0.34 24.98 0 26 C-1.24084307 23.51831386 -1.12933103 21.83573801 -1.1328125 19.0625 C-1.13410156 18.08539063 -1.13539063 17.10828125 -1.13671875 16.1015625 C-1.13285156 15.07804688 -1.12898438 14.05453125 -1.125 13 C-1.12886719 11.97648438 -1.13273437 10.95296875 -1.13671875 9.8984375 C-1.13542969 8.92132813 -1.13414062 7.94421875 -1.1328125 6.9375 C-1.13168457 6.03902344 -1.13055664 5.14054688 -1.12939453 4.21484375 C-1 2 -1 2 0 0 Z " fill="#6C95C7" transform="translate(437,209)"/>
<path d="M0 0 C0.33 0 0.66 0 1 0 C1.0270043 1.45823212 1.04639787 2.91660675 1.0625 4.375 C1.07410156 5.18710938 1.08570313 5.99921875 1.09765625 6.8359375 C1 9 1 9 0 11 C-0.99 11 -1.98 11 -3 11 C-3.33 12.32 -3.66 13.64 -4 15 C-5.32 14.34 -6.64 13.68 -8 13 C-8 11.02 -8 9.04 -8 7 C-5.36 7 -2.72 7 0 7 C0 4.69 0 2.38 0 0 Z " fill="#304B75" transform="translate(413,218)"/>
<path d="M0 0 C0.33 0 0.66 0 1 0 C1.66 5.61 2.32 11.22 3 17 C2.34 17 1.68 17 1 17 C1 20.3 1 23.6 1 27 C1.99 27.33 2.98 27.66 4 28 C2.68 28 1.36 28 0 28 C-0.66 20.74 -1.32 13.48 -2 6 C-1.34 6 -0.68 6 0 6 C0 4.02 0 2.04 0 0 Z " fill="#739ED2" transform="translate(394,211)"/>
<path d="M0 0 C0.33 1.98 0.66 3.96 1 6 C0.67 5.01 0.34 4.02 0 3 C-1.65 3 -3.3 3 -5 3 C-5.33 5.97 -5.66 8.94 -6 12 C-7.32 12 -8.64 12 -10 12 C-9.93999894 10.3739713 -9.8512115 8.74898451 -9.75 7.125 C-9.70359375 6.22007812 -9.6571875 5.31515625 -9.609375 4.3828125 C-9 2 -9 2 -7.125 0.6875 C-4.65169514 -0.11268687 -2.58383294 -0.14354627 0 0 Z " fill="#7CA8DD" transform="translate(335,227)"/>
<path d="M0 0 C0.33 1.32 0.66 2.64 1 4 C0.01 4 -0.98 4 -2 4 C-2 4.66 -2 5.32 -2 6 C-2.99 6 -3.98 6 -5 6 C-5 10.29 -5 14.58 -5 19 C-1.7 18.67 1.6 18.34 5 18 C4.01 18.99 3.02 19.98 2 21 C-0.64 21 -3.28 21 -6 21 C-6 15.06 -6 9.12 -6 3 C-4.35 2.67 -2.7 2.34 -1 2 C-0.67 1.34 -0.34 0.68 0 0 Z " fill="#4A65BB" transform="translate(189,275)"/>
<path d="M0 0 C0.99 0 1.98 0 3 0 C3 3.3 3 6.6 3 10 C2.34 10 1.68 10 1 10 C1.04125 11.2375 1.0825 12.475 1.125 13.75 C1.2361216 17.08364791 0.65876079 19.1004339 -1 22 C-1.10331031 14.57313685 -0.99862699 7.36487404 0 0 Z " fill="#87B8EE" transform="translate(391,207)"/>
<path d="M0 0 C0.66 0 1.32 0 2 0 C2 4.95 2 9.9 2 15 C0.68 15 -0.64 15 -2 15 C-1.85930804 12.87465341 -1.71229079 10.74972471 -1.5625 8.625 C-1.48128906 7.44164062 -1.40007812 6.25828125 -1.31640625 5.0390625 C-1 2 -1 2 0 0 Z " fill="#658BBD" transform="translate(332,207)"/>
<path d="M0 0 C6.93 0 13.86 0 21 0 C21 0.66 21 1.32 21 2 C21.66 2.33 22.32 2.66 23 3 C18.38 3 13.76 3 9 3 C9 2.34 9 1.68 9 1 C6.03 1 3.06 1 0 1 C0 0.67 0 0.34 0 0 Z " fill="#4C7FC7" transform="translate(70,165)"/>
<path d="M0 0 C0.33 1.32 0.66 2.64 1 4 C0.34 4 -0.32 4 -1 4 C-1 3.34 -1 2.68 -1 2 C-4.3 2 -7.6 2 -11 2 C-11.66 3.32 -12.32 4.64 -13 6 C-13.66 6 -14.32 6 -15 6 C-14.34 4.02 -13.68 2.04 -13 0 C-8.38926889 -1.29676812 -4.66159911 -0.71109139 0 0 Z " fill="#4266A9" transform="translate(125,191)"/>
<path d="M0 0 C3 3 3 3 3.34057617 4.99291992 C3.3170105 6.10050659 3.3170105 6.10050659 3.29296875 7.23046875 C3.28330078 8.03291016 3.27363281 8.83535156 3.26367188 9.66210938 C3.23853516 10.49548828 3.21339844 11.32886719 3.1875 12.1875 C3.16719727 13.4549707 3.16719727 13.4549707 3.14648438 14.74804688 C3.11115799 16.83230384 3.05735139 18.91623277 3 21 C2.01 20.67 1.02 20.34 0 20 C0 13.4 0 6.8 0 0 Z " fill="#8DBFF7" transform="translate(380,212)"/>
<path d="M0 0 C0.33 0 0.66 0 1 0 C1 2.97 1 5.94 1 9 C1.66 9 2.32 9 3 9 C2.66009167 14.37992836 2.31442207 18.53273547 -1 23 C-1.99 22.67 -2.98 22.34 -4 22 C-3.34 22 -2.68 22 -2 22 C-1.0998164 17.20406383 -0.70560238 12.48600386 -0.4375 7.625 C-0.39431641 6.88894531 -0.35113281 6.15289062 -0.30664062 5.39453125 C-0.20156201 3.59651932 -0.10037907 1.79828042 0 0 Z " fill="#2A436C" transform="translate(370,202)"/>
<path d="M0 0 C1.65 0 3.3 0 5 0 C7.09230769 4.43076923 7.09230769 4.43076923 6.625 7.3125 C6.41875 7.869375 6.2125 8.42625 6 9 C5.67 7.02 5.34 5.04 5 3 C2.44209319 3.87887015 2.44209319 3.87887015 0 6 C-1.04022801 8.9481839 -1.56587736 11.90930595 -2 15 C-2.33 15 -2.66 15 -3 15 C-3.3152595 9.01006953 -2.68219822 5.36439644 0 0 Z " fill="#2A3F6E" transform="translate(148,209)"/>
<path d="M0 0 C2.64 0 5.28 0 8 0 C8 0.66 8 1.32 8 2 C8.99 2.33 9.98 2.66 11 3 C10.67 3.66 10.34 4.32 10 5 C9.67 4.67 9.34 4.34 9 4 C7.15108054 3.76636119 5.29511969 3.58696365 3.4375 3.4375 C2.42558594 3.35371094 1.41367188 3.26992187 0.37109375 3.18359375 C-0.80259766 3.09271484 -0.80259766 3.09271484 -2 3 C-2 3.99 -2 4.98 -2 6 C-2.66 6 -3.32 6 -4 6 C-4 6.99 -4 7.98 -4 9 C-4.66 9 -5.32 9 -6 9 C-5.67 7.68 -5.34 6.36 -5 5 C-4.34 5 -3.68 5 -3 5 C-3 4.01 -3 3.02 -3 2 C-2.01 2 -1.02 2 0 2 C0 1.34 0 0.68 0 0 Z " fill="#313F7C" transform="translate(222,189)"/>
<path d="M0 0 C2.375 0.1875 2.375 0.1875 5 1 C7.31774201 5.13435061 7.23974777 9.20052214 7.125 13.8125 C7.11597656 14.50537109 7.10695312 15.19824219 7.09765625 15.91210938 C7.07426157 17.60822395 7.03839641 19.30415871 7 21 C6.34 21.33 5.68 21.66 5 22 C5 16.06 5 10.12 5 4 C3.02 4.33 1.04 4.66 -1 5 C-0.67 3.35 -0.34 1.7 0 0 Z " fill="#3E569D" transform="translate(171,159)"/>
<path d="M0 0 C0.99 0 1.98 0 3 0 C2.39622642 7.36603774 2.39622642 7.36603774 0.75 10 C-1.58483133 11.33418933 -3.35786868 11.21422686 -6 11 C-6.33 9.35 -6.66 7.7 -7 6 C-6.01 6.495 -6.01 6.495 -5 7 C-5 7.66 -5 8.32 -5 9 C-3.35 9 -1.7 9 0 9 C0 7.68 0 6.36 0 5 C-1.32 5 -2.64 5 -4 5 C-3.67 4.34 -3.34 3.68 -3 3 C-2.34 3 -1.68 3 -1 3 C-0.67 2.01 -0.34 1.02 0 0 Z " fill="#6389BA" transform="translate(410,229)"/>
<path d="M0 0 C0.66 0 1.32 0 2 0 C2 2.31 2 4.62 2 7 C1.34 7 0.68 7 0 7 C0 7.66 0 8.32 0 9 C-1.65 9 -3.3 9 -5 9 C-5.33 7.68 -5.66 6.36 -6 5 C-4.35 5 -2.7 5 -1 5 C-0.67 3.35 -0.34 1.7 0 0 Z " fill="#84B3E9" transform="translate(432,229)"/>
<path d="M0 0 C0.66 0.33 1.32 0.66 2 1 C3.0283474 6.03890228 3.08970351 10.88689982 3 16 C2.67 15.01 2.34 14.02 2 13 C1.01 13 0.02 13 -1 13 C-0.67 8.71 -0.34 4.42 0 0 Z " fill="#2A346C" transform="translate(260,191)"/>
<path d="M0 0 C0.33 0 0.66 0 1 0 C1 5.28 1 10.56 1 16 C0.01 16 -0.98 16 -2 16 C-2 12.7 -2 9.4 -2 6 C-1.34 6 -0.68 6 0 6 C0 4.02 0 2.04 0 0 Z " fill="#8EC0F7" transform="translate(397,222)"/>
<path d="M0 0 C0.99 0.66 1.98 1.32 3 2 C3.1875 5.125 3.1875 5.125 3 8 C1.35 8 -0.3 8 -2 8 C-2.125 5.125 -2.125 5.125 -2 2 C-1.34 1.34 -0.68 0.68 0 0 Z " fill="#3D5A85" transform="translate(407,212)"/>
<path d="M0 0 C0.33 0 0.66 0 1 0 C1 3.3 1 6.6 1 10 C1.66 10 2.32 10 3 10 C2.67 11.65 2.34 13.3 2 15 C1.67 14.01 1.34 13.02 1 12 C0.01 12.66 -0.98 13.32 -2 14 C-2.99 14 -3.98 14 -5 14 C-5 13.34 -5 12.68 -5 12 C-4.35546875 11.77570313 -3.7109375 11.55140625 -3.046875 11.3203125 C-0.75611148 10.17110544 -0.75611148 10.17110544 -0.390625 7.6171875 C-0.34421875 6.71226562 -0.2978125 5.80734375 -0.25 4.875 C-0.19328125 3.96492187 -0.1365625 3.05484375 -0.078125 2.1171875 C-0.05234375 1.41851562 -0.0265625 0.71984375 0 0 Z " fill="#739DD0" transform="translate(367,206)"/>
<path d="M0 0 C1.99954746 -0.04254356 4.00041636 -0.04080783 6 0 C7 1 7 1 7.09765625 3.50390625 C7.08605469 4.51324219 7.07445313 5.52257812 7.0625 6.5625 C7.05347656 7.57441406 7.04445313 8.58632812 7.03515625 9.62890625 C7.02355469 10.41136719 7.01195313 11.19382813 7 12 C6.67 12 6.34 12 6 12 C6 8.7 6 5.4 6 2 C3.36 2.66 0.72 3.32 -2 4 C-2 3.34 -2 2.68 -2 2 C-1.34 2 -0.68 2 0 2 C0 1.34 0 0.68 0 0 Z " fill="#3F62A3" transform="translate(116,236)"/>
<path d="M0 0 C1.65 0 3.3 0 5 0 C5 1.65 5 3.3 5 5 C3.824375 4.9690625 3.824375 4.9690625 2.625 4.9375 C0.01885039 4.81315937 0.01885039 4.81315937 -2 6 C-1.34 4.02 -0.68 2.04 0 0 Z " fill="#86B6EC" transform="translate(405,207)"/>
<path d="M0 0 C0.33 1.32 0.66 2.64 1 4 C-1.64 4 -4.28 4 -7 4 C-7 3.01 -7 2.02 -7 1 C-3.535 0.505 -3.535 0.505 0 0 Z " fill="#2E4777" transform="translate(113,215)"/>
<path d="M0 0 C0.66 0 1.32 0 2 0 C2.33 2.31 2.66 4.62 3 7 C1.68 7 0.36 7 -1 7 C-1.04254356 5.00045254 -1.04080783 2.99958364 -1 1 C-0.67 0.67 -0.34 0.34 0 0 Z " fill="#304B74" transform="translate(428,212)"/>
<path d="M0 0 C0.33 0 0.66 0 1 0 C1 2.64 1 5.28 1 8 C3.64 8 6.28 8 9 8 C9 8.33 9 8.66 9 9 C6.03 9 3.06 9 0 9 C0 8.01 0 7.02 0 6 C-0.66 6 -1.32 6 -2 6 C-1.34 4.02 -0.68 2.04 0 0 Z " fill="#344F86" transform="translate(122,262)"/>
<path d="M0 0 C-0.33 2.31 -0.66 4.62 -1 7 C-1.33 7 -1.66 7 -2 7 C-2 5.35 -2 3.7 -2 2 C-3.65 2.66 -5.3 3.32 -7 4 C-7.33 3.01 -7.66 2.02 -8 1 C-5.07175348 0.02391783 -3.04386724 -0.08226668 0 0 Z " fill="#243C64" transform="translate(436,227)"/>
<path d="M0 0 C1.65 0 3.3 0 5 0 C5.33 1.98 5.66 3.96 6 6 C5.67 5.01 5.34 4.02 5 3 C3.35 3 1.7 3 0 3 C-0.33 3.66 -0.66 4.32 -1 5 C-0.67 3.35 -0.34 1.7 0 0 Z " fill="#4D6F9C" transform="translate(330,227)"/>
<path d="M0 0 C0.33 0 0.66 0 1 0 C1.33 3.63 1.66 7.26 2 11 C0.68 10.67 -0.64 10.34 -2 10 C-2 8.35 -2 6.7 -2 5 C-1.67 5 -1.34 5 -1 5 C-0.67 3.35 -0.34 1.7 0 0 Z " fill="#739DD1" transform="translate(338,228)"/>
<path d="M0 0 C2 2 2 2 2.1953125 3.9453125 C2.13020833 5.96354167 2.06510417 7.98177083 2 10 C3.32 10.33 4.64 10.66 6 11 C4.35 11 2.7 11 1 11 C0.855625 10.2575 0.71125 9.515 0.5625 8.75 C0.05253619 6.07834232 0.05253619 6.07834232 -0.625 3.8125 C-1 2 -1 2 0 0 Z " fill="#6E98CA" transform="translate(425,209)"/>
<path d="M0 0 C2.31 0 4.62 0 7 0 C6.67 0.99 6.34 1.98 6 3 C4.02 3 2.04 3 0 3 C0 2.01 0 1.02 0 0 Z " fill="#232F5C" transform="translate(218,271)"/>
<path d="M0 0 C0.33 0 0.66 0 1 0 C1.33 3.63 1.66 7.26 2 11 C1.01 11 0.02 11 -1 11 C-0.67 7.37 -0.34 3.74 0 0 Z " fill="#233A62" transform="translate(332,210)"/>
<path d="M0 0 C-0.33 0.66 -0.66 1.32 -1 2 C-3.64 2 -6.28 2 -9 2 C-9 1.34 -9 0.68 -9 0 C-3.375 -1.125 -3.375 -1.125 0 0 Z " fill="#284169" transform="translate(88,207)"/>
<path d="M0 0 C0.33 0.66 0.66 1.32 1 2 C0.0625 4.625 0.0625 4.625 -1 7 C-2.65 7 -4.3 7 -6 7 C-6 6.34 -6 5.68 -6 5 C-4.35 4.67 -2.7 4.34 -1 4 C-0.67 2.68 -0.34 1.36 0 0 Z " fill="#4F62C3" transform="translate(228,250)"/>
<path d="M0 0 C0.33 0 0.66 0 1 0 C1.33 2.97 1.66 5.94 2 9 C1.01 9.66 0.02 10.32 -1 11 C-1.14285714 3.57142857 -1.14285714 3.57142857 0 0 Z " fill="#223960" transform="translate(400,219)"/>
</svg>
